# This file uses meters as units for non-parametric coordinates.

mtllib laptop.mtl
g default
v -518.148452 29.137224 572.721137
v -518.148452 28.655601 572.721137
v -494.737415 29.137224 572.721137
v -494.737415 28.655601 572.721137
v -494.737415 29.137224 530.491966
v -494.737415 28.655601 530.491966
v -518.148452 29.137224 530.491966
v -518.148452 28.655601 530.491966
v -517.623056 29.137224 531.017362
v -517.623056 29.137224 572.195741
v -495.262812 29.137224 572.195741
v -495.262812 29.137224 531.017362
v -516.134430 27.752801 532.505997
v -516.134430 27.752801 570.707097
v -496.751446 27.752801 532.505997
v -496.751446 27.752801 570.707097
v -494.737415 29.137224 572.721137
v -494.255792 29.137224 572.721137
v -494.737415 52.548273 572.721137
v -494.255792 52.548273 572.721137
v -494.737415 52.548273 530.491966
v -494.255792 52.548273 530.491966
v -494.737415 29.137224 530.491966
v -494.255792 29.137224 530.491966
v -494.737415 29.662624 531.017362
v -494.737415 29.662624 572.195741
v -494.737415 52.022872 572.195741
v -494.737415 52.022872 531.017362
v -494.622416 29.662624 531.017362
v -494.622416 29.662624 572.195741
v -494.622416 52.022872 572.195741
v -494.622416 52.022872 531.017362
v -493.352992 31.151258 532.505997
v -493.352992 31.151258 570.707097
v -493.352992 50.534240 532.505997
v -493.352992 50.534240 570.707097
vt 0.862331 0.500000
vt 0.856629 0.500000
vt 0.856629 0.000000
vt 0.862331 0.000000
vt 0.853020 0.500000
vt 0.847318 0.500000
vt 0.847318 0.000000
vt 0.853020 0.000000
vt 0.025745 0.479019
vt 0.026612 0.025119
vt 0.256707 0.025613
vt 0.255840 0.479512
vt 0.000000 0.504124
vt 0.000914 0.000000
vt 0.282452 0.000508
vt 0.281539 0.504631
vt 0.302613 0.991717
vt 0.302613 0.504159
vt 0.567362 0.504159
vt 0.567362 0.991717
vt 0.567982 0.500000
vt 0.567982 0.000000
vt 0.574203 0.006221
vt 0.574203 0.493779
vt 0.845173 0.000000
vt 0.838952 0.006221
vt 0.845173 0.500000
vt 0.838952 0.493779
vt 0.309749 0.479007
vt 0.309738 0.025107
vt 0.539834 0.025155
vt 0.539844 0.479055
vt 0.284053 0.504161
vt 0.283991 0.000037
vt 0.565530 0.000000
vt 0.565592 0.504124
vt 0.567982 1.000000
vt 0.567982 0.500000
vt 0.574203 0.506221
vt 0.574203 0.993779
vt 0.845172 0.500000
vt 0.838952 0.506221
vt 0.838952 0.993779
vt 0.845173 1.000000
vt 0.865940 0.000000
vt 0.871643 0.000000
vt 0.871643 0.500000
vt 0.865940 0.500000
vt 0.875251 0.000000
vt 0.880954 0.000000
vt 0.880954 0.500000
vt 0.875251 0.500000
vt 0.921807 0.487558
vt 0.921807 0.000000
vt 0.923169 0.000000
vt 0.923169 0.487558
vt 0.926463 0.487558
vt 0.926463 0.000000
vt 0.927824 0.000000
vt 0.927824 0.487558
vt 0.890265 0.277190
vt 0.884562 0.277190
vt 0.884562 0.000000
vt 0.890265 0.000000
vt 0.893874 0.000000
vt 0.899576 0.000000
vt 0.899576 0.277190
vt 0.893874 0.277190
vt 0.903185 0.000000
vt 0.908887 0.000000
vt 0.908887 0.277191
vt 0.903185 0.277191
vt 0.912496 0.000000
vt 0.918198 0.000000
vt 0.918198 0.277191
vt 0.912496 0.277191
vt 0.931118 0.264749
vt 0.931118 0.000000
vt 0.932480 0.000000
vt 0.932480 0.264749
vt 0.935774 0.264749
vt 0.935774 0.000000
vt 0.937136 0.000000
vt 0.937136 0.264749
vn 0.000000 0.000000 1.000000
vn 0.000000 0.000000 1.000000
vn 0.000000 0.000000 1.000000
vn 0.000000 0.000000 1.000000
vn 1.000000 0.000000 0.000000
vn 1.000000 0.000000 0.000000
vn 1.000000 0.000000 0.000000
vn 1.000000 0.000000 0.000000
vn 0.000000 0.000000 -1.000000
vn 0.000000 0.000000 -1.000000
vn 0.000000 0.000000 -1.000000
vn 0.000000 0.000000 -1.000000
vn -1.000000 0.000000 0.000000
vn -1.000000 0.000000 0.000000
vn -1.000000 0.000000 0.000000
vn -1.000000 0.000000 0.000000
vn -0.057736 -0.997859 0.030719
vn -0.057736 -0.997859 -0.030719
vn 0.057736 -0.997859 -0.030719
vn 0.057736 -0.997859 0.030719
vn 0.000000 1.000000 0.000000
vn 0.000000 1.000000 -0.000000
vn 0.000000 1.000000 -0.000000
vn 0.000000 1.000000 0.000000
vn 0.000000 1.000000 -0.000000
vn 0.000000 1.000000 -0.000000
vn 0.000000 1.000000 0.000000
vn 0.000000 1.000000 0.000000
vn -0.409043 -0.912515 0.000000
vn -0.409043 -0.912515 0.000000
vn 0.000000 -0.912516 -0.409040
vn 0.000000 -0.912517 -0.409040
vn 0.409039 -0.912517 0.000000
vn 0.409039 -0.912517 0.000000
vn 0.000000 -0.912517 0.409038
vn 0.000000 -0.912517 0.409038
vn 0.000000 1.000000 0.000000
vn 0.000000 1.000000 0.000000
vn 0.000000 1.000000 0.000000
vn 0.000000 1.000000 0.000000
vn 0.000000 0.000000 1.000000
vn 0.000000 0.000000 1.000000
vn 0.000000 0.000000 1.000000
vn 0.000000 0.000000 1.000000
vn 0.000000 1.000000 0.000000
vn 0.000000 1.000000 0.000000
vn 0.000000 1.000000 0.000000
vn 0.000000 1.000000 0.000000
vn 0.000000 0.000000 -1.000000
vn 0.000000 0.000000 -1.000000
vn 0.000000 0.000000 -1.000000
vn 0.000000 0.000000 -1.000000
vn 0.000000 -1.000000 0.000000
vn 0.000000 -1.000000 0.000000
vn 0.000000 -1.000000 0.000000
vn 0.000000 -1.000000 0.000000
vn 0.997859 -0.057735 0.030719
vn 0.997859 -0.057735 -0.030719
vn 0.997859 0.057736 -0.030719
vn 0.997859 0.057736 0.030719
vn -1.000000 0.000000 0.000000
vn -1.000000 0.000000 0.000000
vn -1.000000 0.000000 0.000000
vn -1.000000 0.000000 0.000000
vn -1.000000 0.000001 0.000000
vn -1.000000 0.000001 0.000000
vn -1.000000 0.000001 0.000000
vn -1.000000 0.000001 0.000000
vn -1.000000 -0.000001 0.000000
vn -1.000000 -0.000001 0.000000
vn -1.000000 -0.000001 0.000000
vn -1.000000 -0.000001 0.000000
vn 0.000000 1.000000 0.000000
vn 0.000000 1.000000 0.000000
vn 0.000000 1.000000 0.000000
vn 0.000000 1.000000 0.000000
vn 0.000000 0.000000 -1.000000
vn 0.000000 0.000000 -1.000000
vn 0.000000 0.000000 -1.000000
vn 0.000000 0.000000 -1.000000
vn 0.000000 -1.000000 0.000000
vn 0.000000 -1.000000 0.000000
vn 0.000000 -1.000000 0.000000
vn 0.000000 -1.000000 0.000000
vn 0.000000 0.000000 1.000000
vn 0.000000 0.000000 1.000000
vn 0.000000 0.000000 1.000000
vn 0.000000 0.000000 1.000000
vn 0.912517 -0.409038 0.000000
vn 0.912517 -0.409038 0.000000
vn 0.912517 0.000000 -0.409038
vn 0.912517 0.000000 -0.409038
vn 0.912516 0.409040 0.000000
vn 0.912516 0.409040 0.000000
vn 0.912518 0.000000 0.409037
vn 0.912518 0.000000 0.409037
s off
g Laptop
usemtl initialShadingGroup
f 1/61/1 2/62/2 4/63/3 3/64/4
f 3/1/5 4/2/6 6/3/7 5/4/8
f 5/65/9 6/66/10 8/67/11 7/68/12
f 7/5/13 8/6/14 2/7/15 1/8/16
s 1
f 14/29/17 13/30/18 15/31/19 16/32/20
s 2
f 7/37/21 1/38/22 10/39/23 9/40/24
f 1/38/22 3/41/25 11/42/26 10/39/23
f 3/41/25 5/44/27 12/43/28 11/42/26
f 5/44/27 7/37/21 9/40/24 12/43/28
s 1
f 2/33/29 8/34/30 13/30/18 14/29/17
f 8/34/31 6/35/32 15/31/19 13/30/18
f 6/35/33 4/36/34 16/32/20 15/31/19
f 4/36/35 2/33/36 14/29/17 16/32/20
s off
f 10/39/37 11/42/38 12/43/39 9/40/40
f 17/69/41 18/70/42 20/71/43 19/72/44
f 19/45/45 20/46/46 22/47/47 21/48/48
f 21/73/49 22/74/50 24/75/51 23/76/52
f 23/49/53 24/50/54 18/51/55 17/52/56
s 3
f 34/9/57 33/10/58 35/11/59 36/12/60
s off
f 29/17/61 30/18/62 31/19/63 32/20/64
s 4
f 23/21/65 17/22/66 26/23/67 25/24/68
f 17/22/66 19/25/69 27/26/70 26/23/67
f 19/25/69 21/27/71 28/28/72 27/26/70
f 21/27/71 23/21/65 25/24/68 28/28/72
s off
f 25/53/73 26/54/74 30/55/75 29/56/76
f 26/77/77 27/78/78 31/79/79 30/80/80
f 27/57/81 28/58/82 32/59/83 31/60/84
f 28/81/85 25/82/86 29/83/87 32/84/88
s 3
f 18/13/89 24/14/90 33/10/58 34/9/57
f 24/14/91 22/15/92 35/11/59 33/10/58
f 22/15/93 20/16/94 36/12/60 35/11/59
f 20/16/95 18/13/96 34/9/57 36/12/60
